<?xml version="1.0" encoding="utf-8"?>
<!-- Generator: Adobe Illustrator 25.3.1, SVG Export Plug-In . SVG Version: 6.00 Build 0)  -->
<svg version="1.1" id="Layer_1" xmlns="http://www.w3.org/2000/svg" xmlns:xlink="http://www.w3.org/1999/xlink" x="0px" y="0px"
	 viewBox="0 0 32 32" style="enable-background:new 0 0 32 32;" xml:space="preserve">
<style type="text/css">
	.st0{fill:#75C1A3;}
</style>
<g>
	<path class="st0" d="M23.75,4.67c0.37,0.19,0.49,0.49,0.48,0.9c-0.02,0.91-0.01,1.83-0.01,2.74c0,0.57-0.26,0.82-0.82,0.82
		c-0.98,0-1.96,0-2.94,0c-0.35,0-0.63-0.22-0.69-0.53c-0.06-0.33,0.09-0.62,0.4-0.76c0.11-0.05,0.23-0.05,0.35-0.05
		c0.37,0,0.75,0,1.13,0c-0.01-0.09-0.07-0.11-0.12-0.13c-1.31-0.87-2.75-1.41-4.32-1.58c-3.3-0.35-6.13,0.66-8.44,3.04
		c-1.44,1.49-2.31,3.28-2.63,5.33c-0.29,1.82-0.07,3.59,0.61,5.3c0.08,0.19,0.1,0.38,0.02,0.58c-0.1,0.26-0.34,0.42-0.62,0.41
		c-0.31,0-0.51-0.16-0.63-0.44c-0.3-0.75-0.54-1.52-0.67-2.32C4.34,15,4.9,12.21,6.59,9.7C8.37,7.05,10.86,5.43,14,4.84
		c0.31-0.06,0.62-0.1,0.94-0.13c0.04,0,0.08,0,0.09-0.04c0.62,0,1.24,0,1.86,0c0.01,0.05,0.05,0.04,0.09,0.04
		c1.9,0.15,3.64,0.76,5.23,1.8c0.22,0.14,0.43,0.29,0.66,0.46c0-0.49,0.02-0.95,0-1.4c-0.02-0.41,0.11-0.71,0.49-0.89
		C23.48,4.67,23.61,4.67,23.75,4.67z"/>
	<path class="st0" d="M27.33,16.93c-0.1,0.25-0.08,0.51-0.12,0.77c-0.48,3-1.93,5.43-4.31,7.29c-1.59,1.24-3.39,1.99-5.38,2.24
		c-3.02,0.38-5.78-0.33-8.25-2.12c-0.03-0.02-0.06-0.04-0.12-0.09c0,0.19,0,0.36,0,0.52c0,0.35,0,0.71,0,1.06
		c0,0.43-0.28,0.73-0.66,0.73c-0.4,0.01-0.69-0.29-0.69-0.73c-0.01-1-0.01-2.01,0-3.01c0-0.44,0.28-0.73,0.71-0.73
		c1.02,0,2.04,0,3.05,0c0.34,0,0.61,0.2,0.68,0.49c0.08,0.29-0.04,0.59-0.29,0.75c-0.13,0.08-0.27,0.1-0.42,0.1
		c-0.38,0-0.76,0-1.19,0c0.32,0.25,0.62,0.43,0.93,0.59c1.66,0.88,3.43,1.27,5.31,1.18c4.36-0.22,8.12-3.33,9.16-7.63
		c0.5-2.07,0.34-4.1-0.45-6.08c-0.23-0.58,0.13-1.08,0.71-0.99c0.25,0.04,0.41,0.19,0.5,0.41c0.43,1.07,0.72,2.17,0.8,3.32
		c0,0.04-0.02,0.09,0.04,0.11C27.33,15.72,27.33,16.32,27.33,16.93z"/>
	<path class="st0" d="M16.33,12.82c0,0.43,0,0.87,0,1.3c0,0.13,0,0.19,0.17,0.2c0.3,0.02,0.52,0.29,0.51,0.56
		c-0.01,0.29-0.23,0.52-0.54,0.53c-0.13,0.01-0.16,0.05-0.15,0.17c0.01,0.28,0,0.56,0,0.84c-0.01,0.32-0.24,0.56-0.53,0.57
		c-0.27,0.01-0.56-0.26-0.57-0.56c-0.01-0.26-0.01-0.53,0-0.8c0.01-0.17-0.03-0.22-0.21-0.22c-0.61,0.01-1.22,0.01-1.84,0
		c-0.5,0-0.76-0.42-0.51-0.86c0.63-1.13,1.26-2.26,1.93-3.36c0.16-0.26,0.34-0.48,0.64-0.58c0.52-0.18,1.05,0.21,1.1,0.79
		c0.02,0.23,0.02,0.47,0.03,0.71c0,0.24,0,0.47,0,0.71C16.33,12.82,16.33,12.82,16.33,12.82z M14.06,14.32c0.37,0,0.7-0.01,1.03,0
		c0.12,0,0.13-0.05,0.13-0.15c0-0.58,0-1.16,0-1.75c0-0.03,0-0.06-0.05-0.06C14.8,13,14.44,13.64,14.06,14.32z"/>
	<path class="st0" d="M10.36,15.87c0.55,0,1.06,0,1.58,0c0.28,0,0.52,0.19,0.56,0.44c0.05,0.27-0.07,0.51-0.31,0.62
		c-0.08,0.04-0.17,0.05-0.26,0.05c-0.87,0.01-1.74,0.06-2.61-0.01c-0.54-0.04-0.78-0.51-0.48-0.96c0.37-0.53,0.77-1.04,1.15-1.57
		c0.33-0.46,0.69-0.9,0.96-1.4c0.14-0.26,0.29-0.51,0.18-0.83c-0.11-0.31-0.39-0.52-0.72-0.52c-0.35,0-0.64,0.2-0.74,0.52
		c-0.02,0.07-0.04,0.14-0.06,0.21c-0.11,0.26-0.4,0.4-0.65,0.32c-0.29-0.09-0.46-0.35-0.4-0.64c0.19-1.04,1.27-1.74,2.29-1.48
		c1.08,0.28,1.69,1.35,1.35,2.39c-0.14,0.42-0.35,0.79-0.61,1.14C11.19,14.72,10.79,15.28,10.36,15.87z"/>
	<path class="st0" d="M22.84,16.12c-0.67,0-1.31,0-1.95,0c-0.27,0-0.5-0.08-0.62-0.34C20.1,15.4,20.37,15,20.82,15
		c0.49-0.01,0.99,0,1.48,0c0.44,0,0.89,0,1.33,0c0.51,0,0.76,0.39,0.56,0.86c-0.76,1.73-1.52,3.45-2.28,5.18
		c-0.14,0.33-0.39,0.46-0.68,0.38c-0.36-0.1-0.51-0.45-0.34-0.83c0.47-1.08,0.95-2.16,1.43-3.24
		C22.49,16.94,22.66,16.55,22.84,16.12z"/>
	<path class="st0" d="M20.03,12.92c0.01,0.1-0.04,0.2-0.08,0.3c-0.91,2.28-1.81,4.56-2.72,6.85c-0.13,0.34-0.35,0.5-0.61,0.47
		c-0.39-0.04-0.61-0.41-0.46-0.8c0.27-0.69,0.54-1.38,0.82-2.06c0.65-1.63,1.29-3.25,1.94-4.88c0.15-0.37,0.39-0.52,0.71-0.43
		C19.88,12.44,20.03,12.64,20.03,12.92z"/>
</g>
</svg>
