<?xml version="1.0" encoding="utf-8"?>
<!-- Generator: Adobe Illustrator 25.3.1, SVG Export Plug-In . SVG Version: 6.00 Build 0)  -->
<svg version="1.1" id="Layer_1" xmlns="http://www.w3.org/2000/svg" xmlns:xlink="http://www.w3.org/1999/xlink" x="0px" y="0px"
	 viewBox="0 0 32 32" style="enable-background:new 0 0 32 32;" xml:space="preserve">
<style type="text/css">
	.st0{fill:#75C1A3;}
</style>
<g>
	<path class="st0" d="M16.14,4.44c0.15,0.09,0.22,0.24,0.27,0.4c0.18,0.59,0.37,1.17,0.56,1.75c0.04,0.12,0.09,0.16,0.22,0.16
		c0.63-0.01,1.26,0,1.9-0.01c0.2,0,0.37,0.04,0.44,0.24c0.07,0.2-0.03,0.36-0.2,0.48c-0.5,0.36-1,0.72-1.5,1.08
		c-0.13,0.09-0.17,0.16-0.11,0.33c0.2,0.58,0.38,1.17,0.57,1.75c0.06,0.19,0.08,0.37-0.1,0.51c-0.18,0.13-0.35,0.07-0.51-0.05
		c-0.51-0.38-1.02-0.74-1.53-1.12c-0.1-0.08-0.16-0.08-0.27,0c-0.49,0.37-1,0.73-1.49,1.09c-0.17,0.13-0.35,0.22-0.55,0.08
		c-0.19-0.14-0.16-0.33-0.09-0.53c0.19-0.57,0.37-1.15,0.57-1.73c0.06-0.16,0.01-0.24-0.11-0.32c-0.5-0.35-0.98-0.72-1.48-1.07
		c-0.18-0.13-0.29-0.28-0.22-0.49c0.07-0.2,0.24-0.24,0.44-0.24c0.63,0.01,1.26,0,1.9,0.01c0.13,0,0.18-0.04,0.22-0.16
		c0.18-0.59,0.38-1.18,0.56-1.77c0.05-0.15,0.12-0.28,0.26-0.37C15.96,4.44,16.05,4.44,16.14,4.44z M16.02,6.07
		c-0.02,0-0.03,0-0.05,0c-0.11,0.35-0.23,0.69-0.34,1.04c-0.1,0.3-0.18,0.36-0.48,0.36c-0.38,0-0.75,0-1.19,0
		c0.35,0.26,0.66,0.48,0.96,0.7c0.25,0.18,0.28,0.28,0.18,0.58C15,9.09,14.88,9.44,14.75,9.85c0.31-0.22,0.57-0.41,0.83-0.6
		c0.42-0.3,0.44-0.3,0.86,0.01c0.25,0.18,0.51,0.37,0.81,0.59C17.12,9.43,17,9.08,16.89,8.74c-0.1-0.3-0.06-0.4,0.18-0.58
		c0.3-0.22,0.61-0.44,0.92-0.67c-0.03-0.02-0.04-0.03-0.04-0.03c-0.38,0-0.75,0-1.13,0c-0.27,0-0.37-0.07-0.46-0.33
		C16.25,6.78,16.14,6.42,16.02,6.07z"/>
	<path class="st0" d="M15.99,27.56c-4.07,0-7.4-3.32-7.39-7.39c0-4.07,3.33-7.39,7.4-7.38c4.08,0.01,7.4,3.32,7.39,7.39
		C23.39,24.25,20.07,27.56,15.99,27.56z M20.94,24.7c0.04-0.07,0.05-0.11,0.07-0.14c1.4-1.65,1.93-3.55,1.52-5.66
		c-0.59-2.98-2.96-5.06-5.95-5.34c-1.46-0.14-2.84,0.17-4.06,0.97c-2.33,1.52-3.38,3.69-3.11,6.47c0.13,1.35,0.69,2.52,1.56,3.55
		c0.1,0.12,0.14,0.12,0.2-0.02c0.26-0.55,0.63-1.02,1.06-1.44c0.67-0.64,1.45-1.08,2.35-1.34c-1.74-1.07-1.82-3.2-0.72-4.42
		c1.13-1.25,3.04-1.29,4.21-0.07c0.55,0.57,0.82,1.26,0.8,2.04c-0.03,1.07-0.54,1.87-1.45,2.45C19.01,22.19,20.16,23.16,20.94,24.7z
		 M16,22.27c-0.19,0-0.38,0.02-0.57,0.05c-1.73,0.24-2.95,1.16-3.71,2.72c-0.06,0.12-0.06,0.2,0.06,0.3
		c1.08,0.87,2.31,1.37,3.69,1.48c1.76,0.13,3.33-0.37,4.71-1.46c0.12-0.09,0.15-0.17,0.08-0.31C19.4,23.26,17.95,22.37,16,22.27z
		 M16,21.34c1.16,0.01,2.12-0.93,2.13-2.08c0.01-1.2-0.91-2.17-2.08-2.18c-1.19-0.01-2.17,0.92-2.18,2.08
		C13.86,20.39,14.78,21.33,16,21.34z"/>
	<path class="st0" d="M24.87,14.02c-0.14,0.01-0.23-0.1-0.32-0.21c-0.38-0.49-0.75-0.98-1.12-1.47c-0.09-0.12-0.16-0.15-0.31-0.1
		c-0.57,0.22-1.14,0.41-1.71,0.62c-0.21,0.08-0.4,0.12-0.55-0.08c-0.14-0.19-0.06-0.36,0.06-0.54c0.35-0.5,0.7-1.02,1.05-1.52
		c0.08-0.11,0.08-0.18,0-0.29c-0.39-0.49-0.77-1-1.16-1.49c-0.12-0.15-0.19-0.31-0.07-0.49c0.12-0.18,0.29-0.2,0.5-0.13
		c0.59,0.18,1.18,0.34,1.76,0.53c0.18,0.06,0.26,0.02,0.35-0.13c0.33-0.51,0.68-1,1.02-1.51c0.12-0.17,0.25-0.29,0.47-0.22
		c0.21,0.06,0.26,0.24,0.26,0.44c0.01,0.62,0.04,1.23,0.04,1.85c0,0.16,0.06,0.22,0.2,0.26c0.59,0.16,1.18,0.34,1.77,0.51
		c0.2,0.06,0.37,0.14,0.37,0.39c0,0.23-0.15,0.32-0.34,0.39c-0.59,0.2-1.17,0.42-1.75,0.62c-0.12,0.04-0.17,0.1-0.17,0.24
		c0.02,0.65,0.04,1.31,0.05,1.96C25.26,13.88,25.11,14.03,24.87,14.02z M24.41,8.56c-0.02-0.01-0.05-0.01-0.07-0.02
		c-0.21,0.3-0.41,0.6-0.62,0.91c-0.18,0.26-0.28,0.3-0.59,0.2c-0.29-0.09-0.59-0.17-0.88-0.26c-0.06-0.02-0.11-0.06-0.19-0.01
		c0.21,0.27,0.41,0.53,0.61,0.79c0.27,0.36,0.27,0.41,0.01,0.79c-0.19,0.27-0.37,0.54-0.59,0.87c0.41-0.15,0.74-0.27,1.08-0.39
		c0.32-0.11,0.42-0.09,0.62,0.18c0.22,0.29,0.45,0.58,0.69,0.9c0.03-0.41-0.02-0.79-0.03-1.16c-0.01-0.29,0.07-0.4,0.35-0.5
		c0.36-0.13,0.72-0.25,1.11-0.39c-0.4-0.12-0.76-0.23-1.12-0.34c-0.3-0.09-0.37-0.18-0.37-0.5C24.4,9.28,24.41,8.92,24.41,8.56z"/>
	<path class="st0" d="M6.79,12.64c0-0.33-0.01-0.66,0-0.99c0-0.12-0.05-0.17-0.15-0.2c-0.59-0.21-1.18-0.42-1.78-0.63
		c-0.19-0.07-0.34-0.16-0.34-0.39c0-0.23,0.16-0.32,0.35-0.38c0.59-0.17,1.18-0.34,1.77-0.5C6.81,9.5,6.88,9.43,6.88,9.25
		c0-0.62,0.03-1.25,0.04-1.87c0-0.2,0.08-0.34,0.26-0.4c0.19-0.06,0.33,0.03,0.44,0.19c0.36,0.54,0.73,1.07,1.09,1.6
		C8.78,8.88,8.84,8.9,8.96,8.86c0.62-0.19,1.23-0.36,1.85-0.55c0.19-0.06,0.34-0.03,0.46,0.12c0.13,0.17,0.08,0.33-0.05,0.49
		c-0.38,0.48-0.74,0.97-1.12,1.44c-0.12,0.15-0.14,0.25-0.02,0.42c0.35,0.48,0.68,0.99,1.03,1.48c0.12,0.17,0.17,0.34,0.04,0.52
		c-0.13,0.18-0.32,0.16-0.51,0.09c-0.58-0.21-1.17-0.42-1.75-0.64c-0.14-0.05-0.21-0.03-0.3,0.08c-0.36,0.48-0.73,0.96-1.1,1.43
		c-0.04,0.05-0.07,0.09-0.11,0.14c-0.11,0.13-0.26,0.16-0.41,0.1c-0.15-0.06-0.23-0.18-0.23-0.35c0-0.34,0-0.68,0-1.02
		C6.76,12.64,6.78,12.64,6.79,12.64z M9.9,11.82c-0.24-0.35-0.44-0.65-0.64-0.95c-0.19-0.27-0.18-0.38,0.02-0.64
		c0.22-0.28,0.44-0.57,0.7-0.9c-0.41,0.12-0.75,0.22-1.1,0.32c-0.33,0.1-0.42,0.07-0.6-0.21c-0.21-0.3-0.41-0.6-0.62-0.9
		c-0.02,0-0.04,0.01-0.06,0.01c0,0.36,0,0.71,0,1.07c0,0.33-0.07,0.42-0.39,0.51c-0.36,0.11-0.72,0.21-1.11,0.33
		c0.31,0.11,0.57,0.2,0.84,0.3c0.63,0.22,0.64,0.23,0.6,0.9c-0.02,0.27-0.04,0.54-0.01,0.84c0.25-0.33,0.48-0.62,0.71-0.92
		c0.18-0.23,0.28-0.26,0.56-0.16C9.15,11.56,9.5,11.68,9.9,11.82z"/>
</g>
</svg>
