<?xml version="1.0" encoding="utf-8"?>
<!-- Generator: Adobe Illustrator 25.3.1, SVG Export Plug-In . SVG Version: 6.00 Build 0)  -->
<svg version="1.1" id="Layer_1" xmlns="http://www.w3.org/2000/svg" xmlns:xlink="http://www.w3.org/1999/xlink" x="0px" y="0px"
	 viewBox="0 0 32 32" style="enable-background:new 0 0 32 32;" xml:space="preserve">
<style type="text/css">
	.st0{fill:#75C1A3;}
</style>
<path class="st0" d="M29.31,19.55c-0.19,0.28-0.45,0.37-0.79,0.36c-0.96-0.02-1.92-0.01-2.88-0.01c-0.52,0-0.65-0.09-0.8-0.61
	c-0.09-0.3-0.09-0.3-0.35-0.12c-0.03,0.02-0.06,0.04-0.09,0.06c-0.36,0.17-0.52,0.41-0.51,0.85c0,0.83-0.81,1.57-1.71,1.64
	c-0.1,0.01-0.17,0.01-0.23,0.12c-0.45,0.8-1.16,1.11-2.05,1.07c-0.15-0.01-0.23,0.01-0.31,0.15c-0.37,0.63-1.2,1.22-2.21,0.94
	c-0.05-0.01-0.09-0.03-0.14,0c-0.8,0.51-1.61,0.36-2.43,0.06c-0.66-0.24-1.19-0.68-1.74-1.1c-1.44-1.09-2.88-2.18-4.23-3.37
	c-0.54-0.48-1.04-1.01-1.57-1.52c0,0.01-0.01,0.04-0.02,0.06c-0.23,0.64-0.28,0.67-0.95,0.67c-0.92,0-1.85-0.01-2.77,0
	c-0.47,0.01-0.79-0.15-0.78-0.77c0.02-3.21,0.01-6.41,0.01-9.62c0-0.52,0.18-0.73,0.7-0.69c1.65,0.12,3.3,0.25,4.89,0.78
	C8.53,8.57,8.72,8.66,8.9,8.76C9.35,9.01,9.45,9.2,9.36,9.7C9.32,9.9,9.37,9.94,9.55,9.93c1.33-0.01,2.66-0.01,3.99,0
	c0.15,0,0.26-0.04,0.38-0.13c0.84-0.64,1.76-1.01,2.83-0.88c0.63,0.08,1.22,0.29,1.79,0.54c0.99,0.43,1.99,0.85,3.04,1.24
	c-0.1-0.53,0.23-0.71,0.63-0.86c1.28-0.47,2.6-0.73,3.94-0.88c0.78-0.09,1.57-0.12,2.35-0.15c0.34-0.02,0.6,0.08,0.79,0.36
	C29.31,12.64,29.31,16.1,29.31,19.55z M12.52,11.05c-0.99,0-1.92,0-2.85,0c-0.5,0-0.5,0-0.61,0.48c-0.02,0.09-0.04,0.18-0.06,0.28
	c-0.35,1.62-0.81,3.22-1.28,4.81c-0.04,0.12-0.06,0.21,0.05,0.32c1.01,1.04,2.02,2.08,3.17,2.97c1.2,0.93,2.38,1.88,3.62,2.77
	c0.49,0.35,1.03,0.56,1.67,0.53c-0.19-0.2-0.36-0.38-0.53-0.56c-0.58-0.6-1.16-1.19-1.73-1.79c-0.21-0.22-0.23-0.48-0.07-0.71
	c0.14-0.21,0.4-0.3,0.64-0.22c0.15,0.05,0.24,0.16,0.34,0.27c0.82,0.85,1.62,1.73,2.51,2.51c0.41,0.36,0.83,0.31,1.18-0.12
	c0.13-0.16,0.16-0.27-0.03-0.44c-0.82-0.75-1.59-1.57-2.35-2.38c-0.32-0.35-0.19-0.84,0.26-0.96c0.26-0.07,0.44,0.07,0.61,0.25
	c0.81,0.85,1.6,1.72,2.48,2.5c0.37,0.33,0.86,0.33,1.23-0.01c0.21-0.19,0.25-0.25,0.02-0.47c-1-0.95-1.95-1.94-2.9-2.93
	c-0.1-0.11-0.2-0.22-0.22-0.37c-0.03-0.26,0.07-0.46,0.3-0.58c0.23-0.13,0.46-0.08,0.68,0.13c0.51,0.52,1.01,1.04,1.52,1.56
	c0.52,0.52,1.05,1.03,1.57,1.55c0.15,0.15,0.31,0.2,0.51,0.14c0.46-0.15,0.65-0.59,0.43-1.01c-0.07-0.14-0.17-0.28-0.27-0.41
	c-0.41-0.53-0.91-0.97-1.41-1.41c-1.45-1.28-3.02-2.42-4.45-3.72c-0.09-0.08-0.17-0.09-0.28-0.04c-0.27,0.12-0.53,0.26-0.82,0.31
	c-0.19,0.03-0.3,0.13-0.42,0.26c-0.71,0.81-1.57,1.2-2.67,1.01c-0.75-0.13-1.26-0.53-1.37-1.15c-0.1-0.5,0.02-0.98,0.21-1.44
	C11.52,12.26,11.97,11.65,12.52,11.05z M16.32,10.01c-0.38,0.02-0.75,0.1-1.08,0.28c-0.98,0.54-1.78,1.31-2.45,2.19
	c-0.32,0.42-0.59,0.89-0.67,1.43c-0.05,0.3,0.02,0.41,0.31,0.49c0.61,0.17,1.14,0.05,1.6-0.39c0.16-0.15,0.29-0.32,0.42-0.5
	c0.08-0.12,0.18-0.23,0.32-0.24c0.55-0.05,1.03-0.32,1.53-0.52c0.29-0.11,0.53-0.07,0.75,0.15c0.55,0.55,1.16,1.03,1.76,1.53
	c1.55,1.29,3.2,2.47,4.52,4.02c0.08,0.09,0.12,0.06,0.19,0.01c0.25-0.17,0.5-0.34,0.75-0.5c0.11-0.07,0.12-0.14,0.07-0.25
	c-0.62-1.81-1.26-3.61-1.97-5.39c-0.05-0.12-0.11-0.19-0.24-0.24c-1.48-0.53-2.93-1.13-4.37-1.76
	C17.3,10.15,16.82,10.03,16.32,10.01z M28.19,14.37c0-1.4,0-2.8,0-4.2c0-0.16-0.03-0.23-0.21-0.21c-0.47,0.04-0.95,0.06-1.42,0.1
	c-1.19,0.1-2.35,0.33-3.49,0.68c-0.12,0.04-0.15,0.08-0.09,0.21c1.08,2.48,1.96,5.04,2.79,7.61c0.05,0.16,0.1,0.23,0.29,0.23
	c0.62-0.02,1.24-0.02,1.87,0c0.23,0.01,0.26-0.07,0.26-0.27C28.18,17.13,28.19,15.75,28.19,14.37z M3.86,13.29c0,1.39,0,2.78,0,4.17
	c0,0.18,0.04,0.23,0.23,0.23c0.64-0.01,1.28-0.01,1.92,0c0.17,0,0.23-0.06,0.28-0.21c0.39-1.28,0.78-2.56,1.12-3.86
	c0.32-1.24,0.63-2.48,0.82-3.75c0.04-0.28-0.13-0.28-0.27-0.32C6.72,9.18,5.45,9.03,4.18,8.92C3.86,8.89,3.86,8.9,3.86,9.22
	C3.86,10.58,3.86,11.93,3.86,13.29z"/>
</svg>
