<?xml version="1.0" encoding="utf-8"?>
<!-- Generator: Adobe Illustrator 25.3.1, SVG Export Plug-In . SVG Version: 6.00 Build 0)  -->
<svg version="1.1" id="Layer_1" xmlns="http://www.w3.org/2000/svg" xmlns:xlink="http://www.w3.org/1999/xlink" x="0px" y="0px"
	 viewBox="0 0 32 32" style="enable-background:new 0 0 32 32;" xml:space="preserve">
<style type="text/css">
	.st0{fill:#75C1A3;}
</style>
<path class="st0" d="M6.06,16.21c0.09-0.14,0.23-0.19,0.39-0.19c0.44,0.01,0.87,0,1.31,0c0.25,0,0.4,0.19,0.33,0.38
	c-0.05,0.13-0.14,0.19-0.28,0.19c-0.49,0-0.98-0.01-1.47,0c-0.14,0-0.2-0.09-0.29-0.16C6.06,16.37,6.06,16.29,6.06,16.21z"/>
<path class="st0" d="M18.05,23.58c-0.55-0.03-1.07-0.14-1.58-0.3c-0.93-0.29-1.78-0.74-2.52-1.37c-0.09-0.08-0.19-0.12-0.31-0.12
	c-1.28,0-2.57,0-3.85,0c-0.06,0-0.13,0-0.19,0c-0.15-0.01-0.23-0.11-0.25-0.25c-0.01-0.14,0.06-0.25,0.2-0.29
	c0.08-0.03,0.17-0.02,0.25-0.02c1.13,0,2.26,0,3.43,0c-0.1-0.11-0.17-0.2-0.25-0.29c-0.18-0.23-0.36-0.46-0.5-0.71
	c-0.07-0.12-0.15-0.15-0.28-0.15c-1.16,0-2.31,0-3.47,0c-0.06,0-0.13,0-0.19-0.01c-0.17-0.03-0.27-0.14-0.26-0.3
	c0.01-0.16,0.12-0.26,0.3-0.26c0.48,0,0.96,0,1.43,0c0.63,0,1.27,0,1.9,0c0.13,0,0.15-0.03,0.1-0.15c-0.39-0.84-0.61-1.72-0.66-2.64
	c-0.01-0.14-0.08-0.12-0.16-0.12c-0.83,0-1.65,0-2.48,0c-0.23,0-0.36-0.16-0.31-0.36c0.05-0.16,0.18-0.21,0.33-0.21
	c0.28,0,0.57,0,0.85,0c0.53,0,1.06-0.01,1.59,0c0.15,0,0.18-0.04,0.18-0.18c0.02-0.27,0.04-0.54,0.1-0.8c0.03-0.13,0-0.18-0.15-0.18
	c-0.3,0.01-0.59,0.01-0.89,0c-0.23,0-0.36-0.11-0.35-0.29c0-0.17,0.12-0.27,0.35-0.28c0.36,0,0.71,0,1.07,0c0.09,0,0.15,0,0.18-0.12
	c0.31-1.03,0.83-1.95,1.55-2.75c-0.05-0.06-0.11-0.03-0.16-0.03c-0.96,0-1.92,0-2.89,0c-0.24,0-0.36-0.09-0.37-0.27
	c-0.01-0.19,0.13-0.3,0.37-0.3c1.17,0,2.34,0,3.51,0c0.11,0,0.19-0.03,0.28-0.1c1.53-1.26,3.28-1.82,5.25-1.68
	c3.2,0.22,5.92,2.64,6.56,5.78c0.31,1.53,0.15,3.01-0.47,4.44c-0.06,0.15-0.1,0.13-0.19,0.03c-0.18-0.22-0.39-0.42-0.62-0.58
	c-0.09-0.07-0.11-0.12-0.07-0.23c0.85-2.56,0.34-4.8-1.59-6.68c-0.94-0.92-2.09-1.43-3.4-1.59c-3.2-0.4-6.14,1.67-6.83,4.8
	c-0.74,3.36,1.48,6.74,4.84,7.37c0.35,0.07,0.35,0.07,0.41,0.4c0.03,0.13,0.05,0.26,0.09,0.39C17.96,23.31,18,23.43,18.05,23.58z"/>
<path class="st0" d="M21.94,18.41c1.96-0.02,3.59,1.59,3.61,3.57c0.02,2.02-1.59,3.67-3.59,3.68c-2,0-3.63-1.6-3.65-3.58
	C18.29,20.05,19.9,18.43,21.94,18.41z M21.13,23.81c0.1,0.01,0.2-0.03,0.27-0.1c0.91-0.9,1.82-1.81,2.72-2.73
	c0.24-0.24,0.09-0.65-0.25-0.73c-0.19-0.05-0.33,0.04-0.47,0.17c-0.72,0.72-1.44,1.44-2.16,2.16c-0.1,0.1-0.16,0.13-0.26,0.01
	c-0.17-0.19-0.36-0.37-0.54-0.55c-0.2-0.19-0.47-0.2-0.66-0.03c-0.19,0.18-0.18,0.47,0.02,0.67c0.32,0.33,0.65,0.65,0.97,0.97
	C20.87,23.75,20.98,23.81,21.13,23.81z"/>
<path class="st0" d="M19.58,6.33c0.48,0.13,0.93,0.25,1.38,0.37c0.56,0.15,1.12,0.31,1.69,0.45c0.13,0.03,0.2,0.06,0.14,0.22
	c-0.1,0.33-0.19,0.67-0.27,1c-0.03,0.1-0.06,0.13-0.17,0.1c-0.21-0.07-0.44-0.11-0.65-0.18c-0.13-0.04-0.17,0-0.19,0.12
	c-0.03,0.14-0.08,0.28-0.11,0.43c-0.02,0.11-0.06,0.14-0.18,0.1c-0.39-0.14-0.78-0.25-1.19-0.31c-0.13-0.02-0.12-0.08-0.1-0.17
	c0.04-0.15,0.07-0.3,0.12-0.44c0.06-0.14-0.01-0.16-0.11-0.19c-0.21-0.05-0.42-0.12-0.63-0.16c-0.11-0.02-0.15-0.07-0.12-0.18
	c0.1-0.34,0.18-0.68,0.28-1.02C19.5,6.4,19.48,6.28,19.58,6.33z"/>
<path class="st0" d="M17.92,16.33c0-0.29,0.17-0.55,0.46-0.65c0.1-0.04,0.14-0.08,0.17-0.18c0.2-0.78,0.41-1.55,0.62-2.32
	c0.04-0.15,0.1-0.28,0.28-0.3c0.23-0.02,0.35,0.17,0.28,0.43c-0.12,0.44-0.24,0.88-0.36,1.32c-0.09,0.34-0.18,0.68-0.28,1.02
	c-0.03,0.09-0.01,0.16,0.06,0.24c0.14,0.17,0.21,0.37,0.14,0.59c-0.03,0.09,0.01,0.13,0.06,0.18c0.24,0.24,0.48,0.47,0.71,0.71
	c0.16,0.16,0.17,0.31,0.05,0.44c-0.12,0.13-0.3,0.12-0.46-0.04c-0.23-0.23-0.47-0.46-0.7-0.7c-0.06-0.06-0.12-0.09-0.22-0.07
	C18.32,17.09,17.92,16.76,17.92,16.33z"/>
<path class="st0" d="M9.03,12.57c0.61,0,1.21,0,1.82,0c0.25,0,0.38,0.09,0.38,0.28c0,0.19-0.13,0.29-0.37,0.29
	c-1.23,0-2.45,0-3.68,0c-0.24,0-0.38-0.11-0.37-0.29c0-0.18,0.14-0.28,0.38-0.28C7.8,12.57,8.41,12.57,9.03,12.57z"/>
<path class="st0" d="M9.04,18.34c-0.61,0-1.21,0-1.82,0c-0.22,0-0.36-0.11-0.36-0.28c0-0.18,0.13-0.29,0.36-0.29
	c1.22,0,2.44,0,3.65,0c0.23,0,0.36,0.1,0.36,0.28c0,0.19-0.13,0.29-0.37,0.29C10.25,18.34,9.64,18.34,9.04,18.34z"/>
<path class="st0" d="M15.74,8.38c0.02-0.4,0.27-0.68,0.66-0.75c0.32-0.06,0.67,0.15,0.79,0.48c0.18,0.45,0.17,0.44-0.28,0.56
	c-0.31,0.08-0.62,0.17-0.92,0.27c-0.1,0.03-0.14,0.01-0.16-0.08C15.8,8.69,15.72,8.53,15.74,8.38z"/>
<path class="st0" d="M24.67,11.34c-0.32-0.37-0.65-0.71-1.01-1.02c-0.02-0.02-0.05-0.03-0.03-0.08c0.12-0.29,0.63-0.54,0.95-0.47
	c0.58,0.13,0.8,0.79,0.41,1.24C24.89,11.12,24.78,11.22,24.67,11.34z"/>
<path class="st0" d="M7.93,21.8c-0.26,0-0.53,0-0.79,0c-0.2,0-0.33-0.11-0.33-0.27c0-0.16,0.12-0.29,0.31-0.3
	c0.55-0.01,1.1-0.01,1.65,0c0.19,0,0.32,0.14,0.31,0.3c-0.01,0.16-0.13,0.27-0.32,0.27C8.48,21.8,8.2,21.8,7.93,21.8z"/>
<path class="st0" d="M8.74,14.31c0.25,0,0.49,0,0.74,0c0.21,0,0.31,0.11,0.31,0.29c0,0.17-0.11,0.28-0.3,0.28
	c-0.51,0.01-1.02,0.01-1.53,0c-0.18,0-0.3-0.13-0.3-0.29c0-0.16,0.12-0.27,0.31-0.28C8.22,14.3,8.48,14.31,8.74,14.31
	C8.74,14.31,8.74,14.31,8.74,14.31z"/>
<path class="st0" d="M8.82,11.41c-0.13,0-0.26,0-0.39,0c-0.16-0.01-0.25-0.11-0.27-0.25c-0.02-0.14,0.05-0.27,0.2-0.29
	c0.32-0.05,0.64-0.05,0.96,0c0.15,0.02,0.22,0.15,0.2,0.31c-0.02,0.16-0.12,0.24-0.27,0.24C9.1,11.41,8.96,11.41,8.82,11.41z"/>
<path class="st0" d="M13.4,14.62c0.27,0.08,0.56,0.14,0.83,0.24c0.13,0.05,0.19,0.18,0.14,0.32c-0.04,0.14-0.15,0.24-0.31,0.21
	c-0.28-0.06-0.55-0.14-0.82-0.22c-0.14-0.05-0.19-0.17-0.15-0.31C13.14,14.71,13.24,14.65,13.4,14.62z"/>
<path class="st0" d="M24.14,14.91c-0.02,0.15-0.09,0.25-0.23,0.29c-0.23,0.07-0.47,0.13-0.7,0.19c-0.17,0.04-0.32-0.05-0.35-0.21
	c-0.04-0.16,0.04-0.28,0.19-0.33c0.25-0.08,0.5-0.15,0.76-0.21C23.97,14.6,24.14,14.75,24.14,14.91z"/>
<path class="st0" d="M23.77,18c-0.23-0.06-0.5-0.13-0.77-0.22c-0.13-0.05-0.19-0.17-0.16-0.32c0.04-0.15,0.14-0.24,0.3-0.21
	c0.29,0.04,0.57,0.12,0.83,0.22c0.13,0.05,0.18,0.17,0.14,0.32C24.09,17.94,23.98,18.01,23.77,18z"/>
<path class="st0" d="M17.69,11.74c0,0.21-0.08,0.31-0.22,0.34c-0.15,0.04-0.27-0.02-0.32-0.15c-0.09-0.27-0.17-0.55-0.22-0.83
	c-0.03-0.13,0.07-0.24,0.21-0.28c0.15-0.04,0.27,0.01,0.32,0.14C17.56,11.23,17.62,11.52,17.69,11.74z"/>
<path class="st0" d="M20,10.8c0.17-0.01,0.33,0.16,0.29,0.33c-0.06,0.26-0.13,0.51-0.21,0.76c-0.05,0.16-0.17,0.22-0.33,0.18
	c-0.16-0.04-0.24-0.16-0.21-0.32c0.06-0.26,0.13-0.52,0.21-0.78C19.79,10.86,19.89,10.82,20,10.8z"/>
<path class="st0" d="M17.68,20.92c-0.06,0.22-0.12,0.49-0.21,0.76c-0.05,0.16-0.2,0.2-0.35,0.15c-0.14-0.05-0.22-0.17-0.18-0.32
	c0.06-0.25,0.13-0.51,0.2-0.76c0.05-0.16,0.18-0.22,0.33-0.19C17.62,20.59,17.7,20.7,17.68,20.92z"/>
<path class="st0" d="M14.78,12.2c0.1,0.01,0.17,0.05,0.23,0.11c0.16,0.16,0.32,0.32,0.48,0.48c0.14,0.14,0.14,0.31,0.02,0.43
	c-0.12,0.12-0.28,0.12-0.41-0.01c-0.18-0.17-0.35-0.34-0.52-0.52c-0.09-0.09-0.1-0.21-0.05-0.32C14.58,12.25,14.67,12.21,14.78,12.2
	z"/>
<path class="st0" d="M22.72,12.5c0.01,0.08-0.03,0.15-0.09,0.21c-0.16,0.16-0.32,0.33-0.49,0.49c-0.14,0.14-0.3,0.14-0.43,0.01
	c-0.11-0.12-0.11-0.28,0.02-0.41c0.17-0.17,0.34-0.34,0.51-0.51c0.09-0.09,0.2-0.11,0.32-0.07C22.67,12.27,22.73,12.36,22.72,12.5z"
	/>
<path class="st0" d="M13.43,18c-0.21,0-0.31-0.09-0.34-0.24c-0.03-0.14,0.04-0.26,0.18-0.31c0.25-0.08,0.51-0.14,0.76-0.2
	c0.17-0.04,0.29,0.04,0.34,0.21c0.04,0.14-0.04,0.28-0.21,0.34C13.9,17.88,13.64,17.95,13.43,18z"/>
<path class="st0" d="M15.59,19.65c0,0.08-0.05,0.15-0.1,0.21c-0.16,0.16-0.32,0.32-0.48,0.48c-0.14,0.14-0.31,0.14-0.43,0.02
	c-0.12-0.12-0.11-0.29,0.02-0.43c0.17-0.17,0.34-0.34,0.51-0.5c0.09-0.09,0.21-0.1,0.32-0.05C15.54,19.42,15.6,19.51,15.59,19.65z"
	/>
</svg>
