<?xml version="1.0" encoding="utf-8"?>
<!-- Generator: Adobe Illustrator 25.3.1, SVG Export Plug-In . SVG Version: 6.00 Build 0)  -->
<svg version="1.1" id="Layer_1" xmlns="http://www.w3.org/2000/svg" xmlns:xlink="http://www.w3.org/1999/xlink" x="0px" y="0px"
	 viewBox="0 0 32 32" style="enable-background:new 0 0 32 32;" xml:space="preserve">
<style type="text/css">
	.st0{fill:#75C1A3;}
</style>
<g>
	<path class="st0" d="M26.84,16.32c-0.06,0.02-0.04,0.07-0.05,0.1c-0.2,0.57-0.69,0.93-1.27,0.94c-0.55,0.01-1.05-0.33-1.26-0.88
		c-0.05-0.12-0.11-0.13-0.22-0.13c-0.61,0-1.21,0-1.82,0c-0.14,0-0.27-0.02-0.36-0.14c-0.08-0.1-0.08-0.22-0.03-0.34
		c0.06-0.14,0.19-0.18,0.33-0.18c0.48,0,0.96,0,1.44,0c0.04,0,0.07,0,0.11,0c0.31,0.03,0.52-0.01,0.67-0.36
		c0.2-0.47,0.8-0.72,1.27-0.65c0.61,0.1,1.02,0.46,1.16,1.04c0,0.02,0.02,0.03,0.04,0.04C26.84,15.95,26.84,16.13,26.84,16.32z
		 M25.5,16.71c0.39,0,0.7-0.31,0.7-0.69c0-0.37-0.31-0.68-0.69-0.68c-0.39,0-0.7,0.3-0.71,0.68C24.81,16.4,25.12,16.71,25.5,16.71z"
		/>
	<path class="st0" d="M15.73,26.84c-0.02-0.07-0.08-0.04-0.12-0.06c-0.56-0.2-0.91-0.69-0.92-1.26c-0.01-0.55,0.33-1.05,0.88-1.26
		c0.12-0.05,0.14-0.11,0.14-0.21c0-0.59,0-1.18,0-1.77c0-0.06-0.01-0.13,0.01-0.19c0.04-0.17,0.13-0.28,0.32-0.28
		c0.19,0,0.29,0.1,0.32,0.28c0.02,0.13,0.01,0.27,0.01,0.4c0,0.52,0,1.04,0,1.56c0,0.11,0.02,0.17,0.13,0.22
		c0.57,0.22,0.92,0.75,0.88,1.3c-0.04,0.63-0.43,1.08-1.07,1.25c-0.01,0-0.02,0.02-0.02,0.03C16.09,26.84,15.91,26.84,15.73,26.84z
		 M16.71,25.5c0-0.39-0.32-0.69-0.7-0.69c-0.37,0.01-0.67,0.31-0.67,0.69c0,0.39,0.31,0.7,0.69,0.7
		C16.41,26.2,16.71,25.88,16.71,25.5z"/>
	<path class="st0" d="M13.66,19.75c0-0.3,0-0.57,0-0.85c0-0.47,0.2-0.82,0.63-1.03c0.2-0.09,0.4-0.2,0.6-0.3
		c0.15-0.08,0.18-0.44,0.04-0.54c-0.71-0.47-0.98-1.15-0.94-1.97c0.01-0.32-0.03-0.65,0.03-0.97c0.12-0.64,0.64-1.11,1.29-1.12
		c0.78-0.01,1.56,0,2.35,0c0.22,0,0.37,0.11,0.37,0.32c0,0.77,0.05,1.54-0.03,2.3c-0.06,0.59-0.37,1.05-0.85,1.4
		c-0.22,0.16-0.2,0.49,0.04,0.61c0.19,0.1,0.39,0.19,0.58,0.29c0.4,0.2,0.59,0.53,0.59,0.97c0,0.28,0,0.56,0,0.87
		c0.2-0.1,0.36-0.23,0.51-0.37c1.74-1.5,2.05-4.02,0.73-5.9c-0.07-0.1-0.16-0.2-0.13-0.34c0.03-0.13,0.12-0.22,0.25-0.26
		c0.16-0.04,0.27,0.05,0.36,0.17c0.38,0.51,0.65,1.08,0.81,1.7c0.73,2.84-1.03,5.66-3.92,6.26c-2.62,0.55-5.33-1.2-5.92-3.83
		c-0.63-2.8,1.15-5.56,3.97-6.11c1.42-0.28,2.73,0.02,3.92,0.86c0.14,0.1,0.25,0.21,0.2,0.4c-0.07,0.25-0.32,0.31-0.56,0.14
		c-0.51-0.37-1.08-0.61-1.7-0.75c-2.3-0.51-4.74,1.05-5.2,3.37c-0.36,1.82,0.21,3.32,1.65,4.49C13.45,19.62,13.54,19.67,13.66,19.75
		z M14.32,19.4c0,0.17,0.01,0.34,0,0.51c-0.01,0.15,0.04,0.22,0.18,0.27c0.94,0.34,1.89,0.35,2.85,0.07
		c0.38-0.11,0.38-0.12,0.38-0.53c0-0.26,0-0.52,0-0.78c0-0.08,0-0.16-0.02-0.23c-0.05-0.19-0.33-0.32-0.44-0.21
		c-0.76,0.75-1.74,0.75-2.49,0c-0.04-0.04-0.06-0.09-0.14-0.06c-0.18,0.05-0.31,0.2-0.32,0.4C14.32,19.02,14.32,19.21,14.32,19.4z
		 M14.66,14.83c0.01,0.29-0.03,0.57,0.04,0.83c0.18,0.71,0.8,1.13,1.54,1.04c0.59-0.08,1.19-0.61,1.16-1.43
		c0-0.15-0.03-0.2-0.19-0.17c-0.33,0.06-0.66,0.06-0.99,0.05C15.69,15.13,15.18,15,14.66,14.83z M16.3,13.64
		C16.3,13.64,16.3,13.64,16.3,13.64c-0.33,0-0.66,0-0.99,0c-0.25,0-0.43,0.13-0.56,0.35c-0.06,0.1-0.05,0.15,0.07,0.2
		c0.78,0.3,1.59,0.38,2.42,0.26c0.11-0.02,0.18-0.05,0.16-0.19c-0.02-0.16-0.01-0.32,0-0.48c0.01-0.11-0.04-0.14-0.14-0.14
		C16.93,13.64,16.61,13.64,16.3,13.64z M15.3,18.11c0.43,0.4,1.03,0.4,1.43,0c-0.12-0.09-0.22-0.19-0.3-0.32
		c-0.08-0.14,0.02-0.39-0.13-0.44c-0.15-0.05-0.34,0.03-0.52-0.01c-0.01,0-0.01,0-0.02,0c-0.08-0.02-0.1,0.02-0.09,0.09
		C15.68,17.72,15.56,17.95,15.3,18.11z"/>
	<path class="st0" d="M22,7.94c0.19-0.01,0.35,0.06,0.48,0.19c0.48,0.48,0.96,0.95,1.43,1.43c0.26,0.26,0.26,0.64,0.02,0.91
		c-0.16,0.18-0.33,0.35-0.51,0.51c-0.28,0.25-0.66,0.24-0.93-0.01c-0.12-0.12-0.25-0.23-0.36-0.36c-0.09-0.1-0.15-0.12-0.25-0.01
		c-0.42,0.44-0.85,0.86-1.28,1.29c-0.12,0.12-0.25,0.18-0.41,0.1c-0.21-0.1-0.24-0.36-0.05-0.55c0.43-0.43,0.85-0.86,1.28-1.28
		c0.11-0.11,0.13-0.17,0-0.27c-0.13-0.11-0.26-0.24-0.37-0.37c-0.23-0.25-0.25-0.62-0.03-0.87c0.18-0.21,0.38-0.39,0.58-0.58
		C21.71,7.98,21.85,7.94,22,7.94z M21.49,9.07c0.37,0.37,0.72,0.72,1.08,1.07c0.13,0.13,0.25,0.37,0.41,0.35
		c0.15-0.02,0.27-0.25,0.41-0.37c0.07-0.06,0.06-0.1,0-0.16c-0.43-0.43-0.87-0.86-1.3-1.3c-0.06-0.06-0.1-0.07-0.16,0
		C21.79,8.79,21.65,8.92,21.49,9.07z"/>
	<path class="st0" d="M9.09,20.88c0.21-0.01,0.37,0.1,0.52,0.24c0.14,0.14,0.27,0.39,0.44,0.39c0.15-0.01,0.28-0.25,0.42-0.39
		c0.32-0.32,0.65-0.65,0.97-0.97c0.18-0.18,0.35-0.19,0.5-0.04c0.14,0.14,0.13,0.32-0.05,0.5c-0.43,0.43-0.85,0.86-1.29,1.28
		c-0.1,0.1-0.1,0.15,0,0.24c0.12,0.1,0.23,0.23,0.34,0.34c0.29,0.3,0.3,0.68,0.02,0.98c-0.15,0.16-0.3,0.32-0.46,0.46
		c-0.3,0.27-0.67,0.26-0.96-0.02c-0.47-0.46-0.93-0.92-1.39-1.39c-0.28-0.29-0.29-0.67-0.02-0.96c0.15-0.16,0.32-0.32,0.48-0.48
		C8.74,20.93,8.9,20.87,9.09,20.88z M9.07,21.5c-0.14,0.14-0.26,0.29-0.4,0.42c-0.09,0.08-0.07,0.12,0,0.19
		c0.33,0.32,0.64,0.65,0.97,0.97c0.13,0.13,0.25,0.37,0.41,0.35c0.15-0.02,0.27-0.25,0.41-0.37c0.07-0.07,0.05-0.1-0.01-0.16
		C9.99,22.43,9.54,21.97,9.07,21.5z"/>
	<path class="st0" d="M20.88,22.97c-0.01-0.23,0.1-0.39,0.25-0.54c0.14-0.14,0.38-0.28,0.38-0.42c0-0.14-0.24-0.28-0.38-0.42
		c-0.32-0.32-0.64-0.64-0.95-0.96c-0.2-0.2-0.22-0.38-0.07-0.53c0.15-0.15,0.32-0.13,0.51,0.07c0.42,0.42,0.85,0.84,1.27,1.27
		c0.1,0.1,0.15,0.1,0.24,0c0.11-0.13,0.23-0.24,0.36-0.36c0.28-0.27,0.66-0.28,0.95-0.02c0.17,0.16,0.34,0.32,0.49,0.49
		c0.25,0.27,0.25,0.65,0,0.91c-0.48,0.49-0.96,0.97-1.45,1.45c-0.26,0.26-0.64,0.26-0.91,0.01c-0.18-0.16-0.34-0.33-0.51-0.51
		C20.93,23.3,20.87,23.14,20.88,22.97z M21.5,22.97c0.14,0.14,0.28,0.26,0.4,0.39c0.09,0.11,0.14,0.08,0.23-0.01
		c0.31-0.32,0.64-0.64,0.95-0.96c0.13-0.13,0.35-0.26,0.35-0.39c0-0.13-0.23-0.26-0.35-0.39c-0.01-0.01-0.02-0.02-0.03-0.03
		c-0.05-0.06-0.08-0.07-0.15-0.01C22.44,22.04,21.97,22.5,21.5,22.97z"/>
	<path class="st0" d="M11.16,9.08c0.01,0.22-0.1,0.38-0.24,0.52c-0.14,0.14-0.39,0.27-0.39,0.44c0,0.14,0.25,0.28,0.39,0.42
		c0.32,0.32,0.64,0.64,0.96,0.96c0.19,0.19,0.21,0.36,0.06,0.51c-0.15,0.15-0.32,0.13-0.51-0.06c-0.43-0.43-0.86-0.85-1.28-1.29
		c-0.08-0.08-0.13-0.09-0.21,0c-0.12,0.13-0.24,0.25-0.37,0.37c-0.29,0.28-0.67,0.28-0.96,0.01c-0.15-0.14-0.3-0.29-0.45-0.45
		c-0.29-0.3-0.29-0.68,0-0.98c0.46-0.47,0.92-0.93,1.39-1.39c0.3-0.29,0.67-0.3,0.98-0.01c0.16,0.15,0.31,0.31,0.46,0.46
		C11.11,8.74,11.18,8.9,11.16,9.08z M9.07,10.54c0.36-0.37,0.72-0.72,1.07-1.07c0.13-0.13,0.36-0.27,0.35-0.39
		c-0.01-0.14-0.23-0.27-0.36-0.41c-0.07-0.08-0.11-0.09-0.19,0C9.52,9.09,9.1,9.51,8.67,9.93C8.6,10,8.57,10.05,8.66,10.13
		C8.8,10.25,8.93,10.4,9.07,10.54z"/>
	<path class="st0" d="M8.9,16.35c-0.3,0-0.59,0.01-0.89,0c-0.13-0.01-0.19,0.04-0.24,0.16c-0.21,0.53-0.74,0.88-1.28,0.85
		c-0.59-0.03-1.1-0.43-1.25-0.99c-0.18-0.69,0.19-1.39,0.86-1.62c0.67-0.23,1.41,0.1,1.66,0.76c0.06,0.16,0.14,0.19,0.29,0.19
		c0.6-0.01,1.2,0,1.79,0c0.18,0,0.34,0.05,0.38,0.25c0.05,0.23-0.1,0.4-0.36,0.4C9.55,16.36,9.22,16.35,8.9,16.35z M6.53,16.71
		c0.39,0,0.7-0.31,0.7-0.69c0-0.37-0.3-0.68-0.68-0.68c-0.39-0.01-0.71,0.29-0.71,0.68C5.83,16.39,6.15,16.71,6.53,16.71z"/>
	<path class="st0" d="M15.69,8.92c0-0.29-0.01-0.58,0-0.86c0.01-0.15-0.03-0.22-0.19-0.29c-0.52-0.2-0.87-0.77-0.83-1.3
		c0.05-0.59,0.44-1.08,0.99-1.23c0.69-0.18,1.39,0.19,1.62,0.86c0.23,0.67-0.1,1.4-0.76,1.66c-0.14,0.06-0.18,0.12-0.18,0.27
		c0.01,0.6,0,1.2,0,1.79c0,0.14-0.02,0.27-0.14,0.35c-0.1,0.07-0.21,0.08-0.32,0.03c-0.14-0.06-0.19-0.18-0.19-0.32
		C15.69,9.57,15.69,9.24,15.69,8.92z M16.71,6.54c0-0.39-0.31-0.7-0.69-0.7c-0.37,0-0.68,0.31-0.68,0.68c0,0.39,0.3,0.7,0.68,0.71
		C16.4,7.24,16.71,6.93,16.71,6.54z"/>
</g>
</svg>
