<?xml version="1.0" encoding="utf-8"?>
<!-- Generator: Adobe Illustrator 25.3.1, SVG Export Plug-In . SVG Version: 6.00 Build 0)  -->
<svg version="1.1" id="Layer_1" xmlns="http://www.w3.org/2000/svg" xmlns:xlink="http://www.w3.org/1999/xlink" x="0px" y="0px"
	 viewBox="0 0 32 32" style="enable-background:new 0 0 32 32;" xml:space="preserve">
<style type="text/css">
	.st0{fill:#75C1A3;}
</style>
<path class="st0" d="M21.96,17.5c-0.04-1.1,0.06-2.18-0.12-3.25c-0.4-2.33-2.48-4.34-4.81-4.71c-3.31-0.52-6.13,1.67-6.76,4.53
	c-0.08,0.35-0.13,0.71-0.14,1.07c-0.02,0.78-0.01,1.56-0.01,2.36c0.53-0.22,1.07-0.22,1.6-0.11c0.61,0.12,1.03,0.63,1.03,1.25
	c0.01,1.34,0.02,2.67,0,4.01c-0.01,0.74-0.6,1.28-1.34,1.28c-0.29,0-0.58,0.02-0.86-0.01c-0.53-0.06-0.94-0.47-1.07-1.05
	c-0.04-0.2-0.11-0.27-0.32-0.25c-0.18,0.02-0.37,0.02-0.55-0.01c-0.69-0.12-1.14-0.65-1.14-1.36c0-0.41,0-0.82,0-1.23
	c0.01-0.7,0.43-1.21,1.12-1.33c0.21-0.04,0.2-0.16,0.2-0.3c0.01-1.15-0.05-2.3,0.03-3.45c0.16-2.4,1.26-4.29,3.26-5.61
	c4.35-2.86,10.16-0.34,11.1,4.79c0.12,0.67,0.11,1.35,0.11,2.03c0,0.75,0,1.5,0,2.25c0,0.18,0.03,0.27,0.24,0.3
	c0.61,0.09,1.06,0.62,1.08,1.24c0.02,0.46,0.02,0.93,0,1.39c-0.02,0.72-0.58,1.27-1.3,1.3c-0.05,0-0.1,0.01-0.15,0
	c-0.35-0.06-0.52,0.04-0.61,0.43c-0.12,0.53-0.66,0.87-1.21,0.87c-0.23,0-0.45,0-0.68,0c-0.74-0.01-1.32-0.55-1.33-1.29
	c-0.02-1.34-0.01-2.67,0-4.01c0.01-0.67,0.52-1.2,1.19-1.29C20.94,17.28,21.53,17.34,21.96,17.5z"/>
</svg>
